<mxfile host="app.diagrams.net" agent="Mozilla/5.0 (Windows NT 10.0; Win64; x64) AppleWebKit/537.36 (KHTML, like Gecko) Chrome/140.0.0.0 Safari/537.36" version="28.2.5">
  <diagram name="Page-1" id="Nbch9-U74EsySDg9WKC0">
    <mxGraphModel dx="1046" dy="786" grid="1" gridSize="10" guides="1" tooltips="1" connect="1" arrows="1" fold="1" page="1" pageScale="1" pageWidth="850" pageHeight="1100" math="0" shadow="0">
      <root>
        <mxCell id="0" />
        <mxCell id="1" parent="0" />
        <mxCell id="cnlEjPIZ9E7KV2-g4qv6-1" value="" style="edgeStyle=orthogonalEdgeStyle;rounded=0;orthogonalLoop=1;jettySize=auto;html=1;" edge="1" parent="1" source="cnlEjPIZ9E7KV2-g4qv6-2" target="cnlEjPIZ9E7KV2-g4qv6-4">
          <mxGeometry relative="1" as="geometry" />
        </mxCell>
        <mxCell id="cnlEjPIZ9E7KV2-g4qv6-2" value="START" style="strokeWidth=2;html=1;shape=mxgraph.flowchart.terminator;whiteSpace=wrap;fontSize=14;" vertex="1" parent="1">
          <mxGeometry x="350" y="100" width="105" height="50" as="geometry" />
        </mxCell>
        <mxCell id="cnlEjPIZ9E7KV2-g4qv6-3" value="" style="edgeStyle=orthogonalEdgeStyle;rounded=0;orthogonalLoop=1;jettySize=auto;html=1;" edge="1" parent="1" source="cnlEjPIZ9E7KV2-g4qv6-4" target="cnlEjPIZ9E7KV2-g4qv6-6">
          <mxGeometry relative="1" as="geometry" />
        </mxCell>
        <mxCell id="cnlEjPIZ9E7KV2-g4qv6-4" value="define f(x)&lt;div&gt;define interval [a, b]&lt;/div&gt;" style="verticalLabelPosition=middle;verticalAlign=middle;html=1;shape=hexagon;perimeter=hexagonPerimeter2;arcSize=6;size=0.27;labelPosition=center;align=center;fontSize=14;" vertex="1" parent="1">
          <mxGeometry x="317.5" y="210" width="170" height="80" as="geometry" />
        </mxCell>
        <mxCell id="cnlEjPIZ9E7KV2-g4qv6-5" value="" style="edgeStyle=orthogonalEdgeStyle;rounded=0;orthogonalLoop=1;jettySize=auto;html=1;" edge="1" parent="1" source="cnlEjPIZ9E7KV2-g4qv6-6" target="cnlEjPIZ9E7KV2-g4qv6-8">
          <mxGeometry relative="1" as="geometry" />
        </mxCell>
        <mxCell id="cnlEjPIZ9E7KV2-g4qv6-6" value="define error&lt;div&gt;define max_iter&lt;/div&gt;" style="verticalLabelPosition=middle;verticalAlign=middle;html=1;shape=hexagon;perimeter=hexagonPerimeter2;arcSize=6;size=0.27;labelPosition=center;align=center;fontSize=14;" vertex="1" parent="1">
          <mxGeometry x="317.5" y="350" width="170" height="80" as="geometry" />
        </mxCell>
        <mxCell id="cnlEjPIZ9E7KV2-g4qv6-7" value="" style="edgeStyle=orthogonalEdgeStyle;rounded=0;orthogonalLoop=1;jettySize=auto;html=1;" edge="1" parent="1" source="cnlEjPIZ9E7KV2-g4qv6-8" target="cnlEjPIZ9E7KV2-g4qv6-11">
          <mxGeometry relative="1" as="geometry" />
        </mxCell>
        <mxCell id="cnlEjPIZ9E7KV2-g4qv6-8" value="find f(a) and f(b)" style="rounded=1;whiteSpace=wrap;html=1;absoluteArcSize=1;arcSize=0;strokeWidth=2;fontSize=14;" vertex="1" parent="1">
          <mxGeometry x="322.5" y="490" width="160" height="80" as="geometry" />
        </mxCell>
        <mxCell id="cnlEjPIZ9E7KV2-g4qv6-9" value="" style="edgeStyle=orthogonalEdgeStyle;rounded=0;orthogonalLoop=1;jettySize=auto;html=1;" edge="1" parent="1" source="cnlEjPIZ9E7KV2-g4qv6-11" target="cnlEjPIZ9E7KV2-g4qv6-20">
          <mxGeometry relative="1" as="geometry" />
        </mxCell>
        <mxCell id="cnlEjPIZ9E7KV2-g4qv6-10" value="&lt;font style=&quot;font-size: 14px;&quot;&gt;TRUE&lt;/font&gt;" style="edgeLabel;html=1;align=center;verticalAlign=middle;resizable=0;points=[];" vertex="1" connectable="0" parent="cnlEjPIZ9E7KV2-g4qv6-9">
          <mxGeometry x="-0.1427" y="-2" relative="1" as="geometry">
            <mxPoint as="offset" />
          </mxGeometry>
        </mxCell>
        <mxCell id="cnlEjPIZ9E7KV2-g4qv6-11" value="f(a) * f(b)&lt;div&gt;&amp;lt; 0 ?&lt;/div&gt;" style="strokeWidth=2;html=1;shape=mxgraph.flowchart.decision;whiteSpace=wrap;fontSize=14;" vertex="1" parent="1">
          <mxGeometry x="325.93000000000006" y="630" width="153.13" height="140" as="geometry" />
        </mxCell>
        <mxCell id="cnlEjPIZ9E7KV2-g4qv6-12" value="" style="edgeStyle=orthogonalEdgeStyle;rounded=0;orthogonalLoop=1;jettySize=auto;html=1;" edge="1" parent="1" source="cnlEjPIZ9E7KV2-g4qv6-13" target="cnlEjPIZ9E7KV2-g4qv6-15">
          <mxGeometry relative="1" as="geometry" />
        </mxCell>
        <mxCell id="cnlEjPIZ9E7KV2-g4qv6-13" value="x = (a + b) / 2" style="rounded=1;whiteSpace=wrap;html=1;absoluteArcSize=1;arcSize=0;strokeWidth=2;fontSize=14;" vertex="1" parent="1">
          <mxGeometry x="322.5" y="1030" width="160" height="80" as="geometry" />
        </mxCell>
        <mxCell id="cnlEjPIZ9E7KV2-g4qv6-14" value="" style="edgeStyle=orthogonalEdgeStyle;rounded=0;orthogonalLoop=1;jettySize=auto;html=1;" edge="1" parent="1" source="cnlEjPIZ9E7KV2-g4qv6-15" target="cnlEjPIZ9E7KV2-g4qv6-25">
          <mxGeometry relative="1" as="geometry" />
        </mxCell>
        <mxCell id="cnlEjPIZ9E7KV2-g4qv6-15" value="find f(x)" style="rounded=1;whiteSpace=wrap;html=1;absoluteArcSize=1;arcSize=0;strokeWidth=2;fontSize=14;" vertex="1" parent="1">
          <mxGeometry x="322.5" y="1170" width="160" height="80" as="geometry" />
        </mxCell>
        <mxCell id="cnlEjPIZ9E7KV2-g4qv6-16" value="" style="edgeStyle=orthogonalEdgeStyle;rounded=0;orthogonalLoop=1;jettySize=auto;html=1;" edge="1" parent="1" source="cnlEjPIZ9E7KV2-g4qv6-20" target="cnlEjPIZ9E7KV2-g4qv6-13">
          <mxGeometry relative="1" as="geometry" />
        </mxCell>
        <mxCell id="cnlEjPIZ9E7KV2-g4qv6-17" value="&lt;span style=&quot;font-size: 14px;&quot;&gt;TRUE&lt;/span&gt;" style="edgeLabel;html=1;align=center;verticalAlign=middle;resizable=0;points=[];" vertex="1" connectable="0" parent="cnlEjPIZ9E7KV2-g4qv6-16">
          <mxGeometry x="-0.0692" y="-1" relative="1" as="geometry">
            <mxPoint as="offset" />
          </mxGeometry>
        </mxCell>
        <mxCell id="cnlEjPIZ9E7KV2-g4qv6-18" style="edgeStyle=orthogonalEdgeStyle;rounded=0;orthogonalLoop=1;jettySize=auto;html=1;exitX=1;exitY=0.5;exitDx=0;exitDy=0;exitPerimeter=0;entryX=1;entryY=0.5;entryDx=0;entryDy=0;" edge="1" parent="1" source="cnlEjPIZ9E7KV2-g4qv6-20" target="cnlEjPIZ9E7KV2-g4qv6-34">
          <mxGeometry relative="1" as="geometry">
            <Array as="points">
              <mxPoint x="680" y="900" />
              <mxPoint x="680" y="1890" />
            </Array>
          </mxGeometry>
        </mxCell>
        <mxCell id="cnlEjPIZ9E7KV2-g4qv6-19" value="&lt;font style=&quot;font-size: 14px;&quot;&gt;FALSE&lt;/font&gt;" style="edgeLabel;html=1;align=center;verticalAlign=middle;resizable=0;points=[];" vertex="1" connectable="0" parent="cnlEjPIZ9E7KV2-g4qv6-18">
          <mxGeometry x="-0.8671" relative="1" as="geometry">
            <mxPoint as="offset" />
          </mxGeometry>
        </mxCell>
        <mxCell id="cnlEjPIZ9E7KV2-g4qv6-20" value="i &amp;lt; max_iter" style="strokeWidth=2;html=1;shape=mxgraph.flowchart.decision;whiteSpace=wrap;fontSize=14;" vertex="1" parent="1">
          <mxGeometry x="325.93000000000006" y="830" width="153.13" height="140" as="geometry" />
        </mxCell>
        <mxCell id="cnlEjPIZ9E7KV2-g4qv6-21" value="" style="edgeStyle=orthogonalEdgeStyle;rounded=0;orthogonalLoop=1;jettySize=auto;html=1;" edge="1" parent="1" source="cnlEjPIZ9E7KV2-g4qv6-25" target="cnlEjPIZ9E7KV2-g4qv6-28">
          <mxGeometry relative="1" as="geometry" />
        </mxCell>
        <mxCell id="cnlEjPIZ9E7KV2-g4qv6-22" value="&lt;font style=&quot;font-size: 14px;&quot;&gt;FALSE&lt;/font&gt;" style="edgeLabel;html=1;align=center;verticalAlign=middle;resizable=0;points=[];" vertex="1" connectable="0" parent="cnlEjPIZ9E7KV2-g4qv6-21">
          <mxGeometry x="-0.1907" relative="1" as="geometry">
            <mxPoint as="offset" />
          </mxGeometry>
        </mxCell>
        <mxCell id="cnlEjPIZ9E7KV2-g4qv6-23" style="edgeStyle=orthogonalEdgeStyle;rounded=0;orthogonalLoop=1;jettySize=auto;html=1;entryX=1;entryY=0.5;entryDx=0;entryDy=0;" edge="1" parent="1" source="cnlEjPIZ9E7KV2-g4qv6-25" target="cnlEjPIZ9E7KV2-g4qv6-34">
          <mxGeometry relative="1" as="geometry">
            <Array as="points">
              <mxPoint x="680" y="1380" />
              <mxPoint x="680" y="1890" />
            </Array>
          </mxGeometry>
        </mxCell>
        <mxCell id="cnlEjPIZ9E7KV2-g4qv6-24" value="&lt;font style=&quot;font-size: 14px;&quot;&gt;TRUE&lt;/font&gt;" style="edgeLabel;html=1;align=center;verticalAlign=middle;resizable=0;points=[];" vertex="1" connectable="0" parent="cnlEjPIZ9E7KV2-g4qv6-23">
          <mxGeometry x="-0.8198" relative="1" as="geometry">
            <mxPoint as="offset" />
          </mxGeometry>
        </mxCell>
        <mxCell id="cnlEjPIZ9E7KV2-g4qv6-25" value="|b - a| &amp;lt; error&lt;div&gt;or&lt;/div&gt;&lt;div&gt;|f(x)| &amp;lt; error?&lt;/div&gt;" style="strokeWidth=2;html=1;shape=mxgraph.flowchart.decision;whiteSpace=wrap;fontSize=14;" vertex="1" parent="1">
          <mxGeometry x="325.93000000000006" y="1310" width="153.13" height="140" as="geometry" />
        </mxCell>
        <mxCell id="cnlEjPIZ9E7KV2-g4qv6-26" style="edgeStyle=orthogonalEdgeStyle;rounded=0;orthogonalLoop=1;jettySize=auto;html=1;exitX=0;exitY=0.5;exitDx=0;exitDy=0;exitPerimeter=0;" edge="1" parent="1" source="cnlEjPIZ9E7KV2-g4qv6-28" target="cnlEjPIZ9E7KV2-g4qv6-30">
          <mxGeometry relative="1" as="geometry" />
        </mxCell>
        <mxCell id="cnlEjPIZ9E7KV2-g4qv6-27" style="edgeStyle=orthogonalEdgeStyle;rounded=0;orthogonalLoop=1;jettySize=auto;html=1;exitX=1;exitY=0.5;exitDx=0;exitDy=0;exitPerimeter=0;entryX=0.5;entryY=0;entryDx=0;entryDy=0;" edge="1" parent="1" source="cnlEjPIZ9E7KV2-g4qv6-28" target="cnlEjPIZ9E7KV2-g4qv6-31">
          <mxGeometry relative="1" as="geometry" />
        </mxCell>
        <mxCell id="cnlEjPIZ9E7KV2-g4qv6-28" value="f(a) * f(x) &amp;lt; 0?" style="strokeWidth=2;html=1;shape=mxgraph.flowchart.decision;whiteSpace=wrap;fontSize=14;" vertex="1" parent="1">
          <mxGeometry x="325.92999999999984" y="1510" width="153.13" height="140" as="geometry" />
        </mxCell>
        <mxCell id="cnlEjPIZ9E7KV2-g4qv6-29" value="" style="edgeStyle=orthogonalEdgeStyle;rounded=0;orthogonalLoop=1;jettySize=auto;html=1;endArrow=none;endFill=0;" edge="1" parent="1" source="cnlEjPIZ9E7KV2-g4qv6-30" target="cnlEjPIZ9E7KV2-g4qv6-31">
          <mxGeometry relative="1" as="geometry" />
        </mxCell>
        <mxCell id="cnlEjPIZ9E7KV2-g4qv6-30" value="b = x&lt;div&gt;f(b) = f(x)&lt;/div&gt;" style="rounded=1;whiteSpace=wrap;html=1;absoluteArcSize=1;arcSize=0;strokeWidth=2;fontSize=14;" vertex="1" parent="1">
          <mxGeometry x="200" y="1710" width="160" height="80" as="geometry" />
        </mxCell>
        <mxCell id="cnlEjPIZ9E7KV2-g4qv6-31" value="a = x&lt;div&gt;f(a) = f(x)&lt;/div&gt;" style="rounded=1;whiteSpace=wrap;html=1;absoluteArcSize=1;arcSize=0;strokeWidth=2;fontSize=14;" vertex="1" parent="1">
          <mxGeometry x="440" y="1710" width="160" height="80" as="geometry" />
        </mxCell>
        <mxCell id="cnlEjPIZ9E7KV2-g4qv6-32" style="edgeStyle=orthogonalEdgeStyle;rounded=0;orthogonalLoop=1;jettySize=auto;html=1;exitX=0;exitY=0.5;exitDx=0;exitDy=0;entryX=0;entryY=0.5;entryDx=0;entryDy=0;entryPerimeter=0;" edge="1" parent="1" source="cnlEjPIZ9E7KV2-g4qv6-30" target="cnlEjPIZ9E7KV2-g4qv6-20">
          <mxGeometry relative="1" as="geometry">
            <Array as="points">
              <mxPoint x="160" y="1750" />
              <mxPoint x="160" y="900" />
            </Array>
          </mxGeometry>
        </mxCell>
        <mxCell id="cnlEjPIZ9E7KV2-g4qv6-33" value="" style="edgeStyle=orthogonalEdgeStyle;rounded=0;orthogonalLoop=1;jettySize=auto;html=1;" edge="1" parent="1" source="cnlEjPIZ9E7KV2-g4qv6-34" target="cnlEjPIZ9E7KV2-g4qv6-35">
          <mxGeometry relative="1" as="geometry" />
        </mxCell>
        <mxCell id="cnlEjPIZ9E7KV2-g4qv6-34" value="return x as root" style="rounded=1;whiteSpace=wrap;html=1;absoluteArcSize=1;arcSize=0;strokeWidth=2;fontSize=14;" vertex="1" parent="1">
          <mxGeometry x="322.5" y="1850" width="160" height="80" as="geometry" />
        </mxCell>
        <mxCell id="cnlEjPIZ9E7KV2-g4qv6-35" value="END" style="strokeWidth=2;html=1;shape=mxgraph.flowchart.terminator;whiteSpace=wrap;fontSize=14;" vertex="1" parent="1">
          <mxGeometry x="349.99" y="1990" width="105" height="50" as="geometry" />
        </mxCell>
        <mxCell id="cnlEjPIZ9E7KV2-g4qv6-36" style="edgeStyle=orthogonalEdgeStyle;rounded=0;orthogonalLoop=1;jettySize=auto;html=1;exitX=1;exitY=0.5;exitDx=0;exitDy=0;exitPerimeter=0;entryX=1;entryY=0.5;entryDx=0;entryDy=0;entryPerimeter=0;" edge="1" parent="1" source="cnlEjPIZ9E7KV2-g4qv6-11" target="cnlEjPIZ9E7KV2-g4qv6-35">
          <mxGeometry relative="1" as="geometry">
            <Array as="points">
              <mxPoint x="800" y="700" />
              <mxPoint x="800" y="2015" />
            </Array>
          </mxGeometry>
        </mxCell>
        <mxCell id="cnlEjPIZ9E7KV2-g4qv6-37" value="&lt;font style=&quot;font-size: 14px;&quot;&gt;FALSE&lt;/font&gt;" style="edgeLabel;html=1;align=center;verticalAlign=middle;resizable=0;points=[];" vertex="1" connectable="0" parent="cnlEjPIZ9E7KV2-g4qv6-36">
          <mxGeometry x="-0.8926" relative="1" as="geometry">
            <mxPoint as="offset" />
          </mxGeometry>
        </mxCell>
      </root>
    </mxGraphModel>
  </diagram>
</mxfile>
